<?xml version="1.0" standalone="no"?>
<!DOCTYPE svg PUBLIC "-//W3C//DTD SVG 20010904//EN"
 "http://www.w3.org/TR/2001/REC-SVG-20010904/DTD/svg10.dtd">
<svg version="1.0" xmlns="http://www.w3.org/2000/svg"
 width="1024.000000pt" height="1024.000000pt" viewBox="0 0 1024.000000 1024.000000"
 preserveAspectRatio="xMidYMid meet">
<metadata>
Created by potrace 1.14, written by Peter Selinger 2001-2017
</metadata>
<g transform="translate(0.000000,1024.000000) scale(0.100000,-0.100000)"
fill="#000000" stroke="none">
<path d="M6930 10124 c-248 -42 -443 -267 -443 -513 0 -167 65 -311 187 -416
l54 -47 -95 -189 c-51 -104 -99 -189 -105 -189 -5 0 -38 7 -72 16 -33 9 -68
17 -76 19 -8 2 -58 15 -110 29 -102 27 -245 64 -490 127 -85 22 -195 51 -245
64 -343 90 -566 145 -593 145 -39 0 -90 -44 -96 -83 -8 -48 13 -84 92 -154 42
-37 83 -75 92 -83 8 -8 78 -71 155 -140 76 -69 146 -132 155 -140 47 -44 146
-134 220 -200 271 -242 307 -278 290 -284 -22 -7 -402 -117 -420 -121 -84 -18
-351 -103 -372 -117 -15 -10 -31 -33 -36 -51 -6 -17 -9 -128 -8 -245 l1 -212
-80 0 c-361 -1 -554 -8 -610 -24 -240 -66 -435 -258 -501 -493 l-16 -60 -407
0 c-223 0 -435 -3 -471 -7 -480 -49 -891 -412 -999 -881 -28 -125 -30 -147
-31 -435 l0 -255 -66 -2 c-103 -3 -171 -21 -269 -68 -175 -86 -296 -241 -334
-430 -14 -70 -16 -192 -15 -1020 0 -731 3 -952 13 -995 33 -140 134 -287 251
-367 46 -31 152 -76 205 -87 66 -14 80 -15 146 -17 l68 -2 1 -246 c0 -136 2
-258 5 -271 2 -14 6 -46 10 -72 10 -81 54 -219 102 -318 137 -285 409 -516
708 -602 44 -12 82 -25 85 -28 3 -3 30 -6 60 -8 50 -3 58 -7 92 -45 21 -23 35
-48 33 -55 -3 -7 0 -10 6 -7 12 8 51 -24 43 -36 -3 -5 3 -6 12 -2 12 4 15 3
10 -6 -4 -6 -4 -10 1 -9 4 1 29 -8 54 -20 26 -13 57 -25 70 -28 52 -12 106
-20 137 -19 17 0 32 -4 32 -10 0 -6 3 -6 8 1 10 15 87 11 109 -7 16 -13 17
-12 5 3 -12 15 -9 17 40 14 30 -1 60 -6 67 -11 9 -5 12 -4 8 2 -8 13 211 11
232 -1 9 -6 12 -5 8 1 -9 14 75 12 85 -2 5 -7 8 -6 8 1 0 6 28 10 74 10 41 0
72 -4 70 -8 -3 -4 0 -8 5 -8 6 0 11 4 11 9 0 10 101 8 119 -4 10 -5 12 -4 7 3
-5 8 5 11 29 10 28 -1 35 -5 30 -17 -4 -14 -4 -14 7 -1 14 17 83 21 107 6 10
-6 12 -5 7 2 -8 14 71 12 93 -2 9 -6 12 -5 8 1 -8 12 173 11 192 -1 9 -6 12
-5 8 1 -8 13 176 11 185 -2 5 -7 8 -6 8 1 0 6 28 10 74 10 41 0 72 -4 70 -8
-3 -4 0 -8 5 -8 6 0 11 4 11 8 0 11 121 9 139 -2 9 -6 12 -5 7 2 -4 7 8 10 39
9 36 -1 44 -4 40 -17 -4 -13 -3 -13 7 1 16 20 89 19 115 -2 16 -13 17 -12 5 3
-12 15 -9 17 40 14 30 -1 60 -6 67 -11 9 -5 12 -4 7 3 -4 7 8 10 39 9 36 -1
44 -4 40 -17 -4 -13 -4 -13 7 0 15 18 81 24 71 6 -4 -6 0 -5 9 2 11 9 18 10
23 2 3 -6 12 -7 18 -3 18 11 117 10 117 -2 0 -6 3 -6 8 1 8 12 153 14 146 2
-3 -4 0 -8 5 -8 6 0 11 4 11 9 0 10 101 8 119 -4 10 -5 12 -4 7 3 -5 8 5 11
29 10 28 -1 35 -5 30 -17 -4 -14 -4 -14 7 -1 14 17 83 21 107 6 10 -6 12 -5 7
2 -8 14 71 12 93 -2 9 -6 12 -5 8 1 -8 12 173 11 192 -1 9 -6 12 -5 8 1 -8 13
176 11 185 -2 5 -7 8 -6 8 0 0 7 33 11 83 12 90 2 126 6 174 21 17 6 34 8 37
4 3 -3 6 0 6 6 0 6 15 18 33 27 18 8 48 29 66 45 18 17 37 28 42 25 5 -3 7 0
4 7 -6 16 31 62 44 54 5 -3 8 2 7 11 -1 13 9 18 40 20 22 2 85 15 140 29 54
14 109 27 121 27 12 1 20 4 18 5 -2 2 41 26 96 53 356 179 598 529 635 919 4
41 7 174 7 296 l0 221 56 2 c80 4 102 7 168 26 222 64 381 240 430 475 3 14 6
455 6 980 0 942 0 956 -21 1036 -59 225 -240 402 -462 451 -35 7 -127 18 -151
18 l-26 -1 0 226 c0 135 -5 234 -11 246 -5 10 -13 46 -17 79 -53 444 -355 821
-775 967 -81 28 -225 55 -310 58 -41 1 -242 3 -447 3 l-372 0 -11 51 c-17 71
-71 182 -124 252 -88 118 -201 197 -351 247 -54 18 -93 20 -380 24 -176 2
-324 5 -330 7 -10 3 -14 331 -4 340 4 4 214 66 240 71 9 2 61 17 115 34 55 16
189 55 299 86 255 73 270 79 286 118 25 59 13 107 -37 146 -15 12 -50 42 -78
68 -29 27 -95 86 -146 133 -52 47 -101 92 -110 100 -9 8 -39 35 -66 60 -27 25
-94 86 -149 136 -55 50 -130 117 -166 150 -37 32 -65 60 -64 62 2 2 54 -10
117 -27 62 -16 192 -50 288 -75 96 -25 209 -54 250 -65 131 -34 432 -112 513
-132 76 -19 80 -19 115 -2 32 16 47 41 161 271 l126 252 75 -1 c101 -1 169 14
257 57 98 47 187 136 235 236 46 95 59 153 57 252 -3 141 -57 265 -160 366
-120 118 -291 172 -459 144z"/>
<path d="M7999 673 c-13 -16 -12 -17 4 -4 16 13 21 21 13 21 -2 0 -10 -8 -17
-17z"/>
<path d="M2275 671 c-3 -5 -2 -12 3 -15 5 -3 9 1 9 9 0 17 -3 19 -12 6z"/>
<path d="M2515 671 c-3 -5 -2 -12 3 -15 5 -3 9 1 9 9 0 17 -3 19 -12 6z"/>
<path d="M7796 613 c-6 -14 -5 -15 5 -6 7 7 10 15 7 18 -3 3 -9 -2 -12 -12z"/>
<path d="M2206 602 c-3 -5 1 -9 9 -9 8 0 12 4 9 9 -3 4 -7 8 -9 8 -2 0 -6 -4
-9 -8z"/>
<path d="M2076 558 c3 -5 10 -6 15 -3 13 9 11 12 -6 12 -8 0 -12 -4 -9 -9z"/>
<path d="M7873 535 c0 -8 4 -12 9 -9 5 3 6 10 3 15 -9 13 -12 11 -12 -6z"/>
<path d="M2205 520 c-3 -6 1 -7 9 -4 18 7 21 14 7 14 -6 0 -13 -4 -16 -10z"/>
<path d="M8276 507 c3 -10 9 -15 12 -12 3 3 0 11 -7 18 -10 9 -11 8 -5 -6z"/>
<path d="M8155 461 c-3 -5 -2 -12 3 -15 5 -3 9 1 9 9 0 17 -3 19 -12 6z"/>
<path d="M2550 416 c0 -2 8 -10 18 -17 15 -13 16 -12 3 4 -13 16 -21 21 -21
13z"/>
<path d="M7015 409 c-4 -6 -5 -12 -2 -15 2 -3 7 2 10 11 7 17 1 20 -8 4z"/>
<path d="M6890 406 c0 -2 7 -7 16 -10 8 -3 12 -2 9 4 -6 10 -25 14 -25 6z"/>
<path d="M7506 402 c-2 -4 4 -8 14 -8 10 0 16 4 14 8 -3 4 -9 8 -14 8 -5 0
-11 -4 -14 -8z"/>
<path d="M5755 391 c-3 -5 -2 -12 3 -15 5 -3 9 1 9 9 0 17 -3 19 -12 6z"/>
<path d="M5113 375 c0 -8 4 -12 9 -9 5 3 6 10 3 15 -9 13 -12 11 -12 -6z"/>
<path d="M2900 360 c-9 -6 -10 -10 -3 -10 6 0 15 5 18 10 8 12 4 12 -15 0z"/>
<path d="M3576 322 c-3 -5 1 -9 9 -9 8 0 12 4 9 9 -3 4 -7 8 -9 8 -2 0 -6 -4
-9 -8z"/>
<path d="M4524 322 c4 -3 14 -7 22 -8 9 -1 13 0 10 4 -4 3 -14 7 -22 8 -9 1
-13 0 -10 -4z"/>
<path d="M5755 320 c3 -5 8 -10 11 -10 2 0 4 5 4 10 0 6 -5 10 -11 10 -5 0 -7
-4 -4 -10z"/>
<path d="M5830 321 c0 -6 4 -13 10 -16 6 -3 7 1 4 9 -7 18 -14 21 -14 7z"/>
<path d="M6716 322 c-3 -5 1 -9 9 -9 8 0 12 4 9 9 -3 4 -7 8 -9 8 -2 0 -6 -4
-9 -8z"/>
<path d="M6793 315 c0 -8 4 -12 9 -9 5 3 6 10 3 15 -9 13 -12 11 -12 -6z"/>
<path d="M6236 293 c-6 -14 -5 -15 5 -6 7 7 10 15 7 18 -3 3 -9 -2 -12 -12z"/>
<path d="M3395 291 c-3 -5 -2 -12 3 -15 5 -3 9 1 9 9 0 17 -3 19 -12 6z"/>
<path d="M3315 280 c3 -5 8 -10 11 -10 2 0 4 5 4 10 0 6 -5 10 -11 10 -5 0 -7
-4 -4 -10z"/>
<path d="M3705 280 c-3 -6 1 -7 9 -4 18 7 21 14 7 14 -6 0 -13 -4 -16 -10z"/>
<path d="M3886 278 c3 -5 10 -6 15 -3 13 9 11 12 -6 12 -8 0 -12 -4 -9 -9z"/>
<path d="M6555 280 c3 -5 8 -10 11 -10 2 0 4 5 4 10 0 6 -5 10 -11 10 -5 0 -7
-4 -4 -10z"/>
<path d="M4275 269 c-4 -6 -5 -12 -2 -15 2 -3 7 2 10 11 7 17 1 20 -8 4z"/>
<path d="M5195 251 c-3 -5 -2 -12 3 -15 5 -3 9 1 9 9 0 17 -3 19 -12 6z"/>
<path d="M5669 243 c-13 -16 -12 -17 4 -4 16 13 21 21 13 21 -2 0 -10 -8 -17
-17z"/>
<path d="M4766 238 c3 -5 10 -6 15 -3 13 9 11 12 -6 12 -8 0 -12 -4 -9 -9z"/>
<path d="M4820 240 c-9 -6 -10 -10 -3 -10 6 0 15 5 18 10 8 12 4 12 -15 0z"/>
<path d="M4870 236 c7 -7 13 -7 20 0 6 6 3 10 -10 10 -13 0 -16 -4 -10 -10z"/>
<path d="M4927 239 c7 -7 15 -10 18 -7 3 3 -2 9 -12 12 -14 6 -15 5 -6 -5z"/>
<path d="M4976 233 c-6 -14 -5 -15 5 -6 7 7 10 15 7 18 -3 3 -9 -2 -12 -12z"/>
<path d="M5246 238 c3 -5 10 -6 15 -3 13 9 11 12 -6 12 -8 0 -12 -4 -9 -9z"/>
<path d="M5610 246 c0 -2 7 -7 16 -10 8 -3 12 -2 9 4 -6 10 -25 14 -25 6z"/>
<path d="M5726 238 c3 -5 10 -6 15 -3 13 9 11 12 -6 12 -8 0 -12 -4 -9 -9z"/>
</g>
</svg>
